<svg width="66" height="66" viewBox="0 0 66 66" fill="none" xmlns="http://www.w3.org/2000/svg">
<g filter="url(#filter0_d_2_460)">
<g filter="url(#filter1_d_2_460)">
<path d="M51.6522 55.8667L13.1306 34.1983C12.1961 33.6725 12.1961 32.3272 13.1306 31.8014L51.6522 10.1331C52.7775 9.50003 54.0758 10.6267 53.6077 11.8298L45.5689 32.5016C45.4441 32.822 45.4441 33.1778 45.5689 33.4982L53.6077 54.17C54.0758 55.3732 52.7775 56.4997 51.6522 55.8667Z" fill="#FFA629"/>
<path d="M51.6522 55.8667L13.1306 34.1983C12.1961 33.6725 12.1961 32.3272 13.1306 31.8014L51.6522 10.1331C52.7775 9.50003 54.0758 10.6267 53.6077 11.8298L45.5689 32.5016C45.4441 32.822 45.4441 33.1778 45.5689 33.4982L53.6077 54.17C54.0758 55.3732 52.7775 56.4997 51.6522 55.8667Z" stroke="black" stroke-width="1.5" stroke-linecap="round" stroke-linejoin="round"/>
</svg>
